<svg id="Layer_2" data-name="Layer 2" xmlns="http://www.w3.org/2000/svg" viewBox="0 0 16 16"><defs><style>.cls-1{fill:#fa8f59;}</style></defs><title>Repositories A-P-Setting</title><path class="cls-1" d="M13.5,16H2.5A2.5026,2.5026,0,0,1,0,13.5v-4A1.5017,1.5017,0,0,1,1.5,8h13a.5006.5006,0,0,0,.5-.5v-5A1.5017,1.5017,0,0,0,13.5,1H2.5A1.5017,1.5017,0,0,0,1,2.5v3a.5.5,0,0,1-1,0v-3A2.503,2.503,0,0,1,2.5,0h11A2.5026,2.5026,0,0,1,16,2.5v5A1.5017,1.5017,0,0,1,14.5,9H1.5a.5006.5006,0,0,0-.5.5v4A1.5017,1.5017,0,0,0,2.5,15h11A1.5017,1.5017,0,0,0,15,13.5v-2a.5.5,0,0,1,1,0v2A2.5023,2.5023,0,0,1,13.5,16Z"/><rect class="cls-1" x="3" y="11" width="2" height="2" rx="1" ry="1"/><rect class="cls-1" x="3" y="4" width="2" height="2" rx="1" ry="1"/></svg>